<svg width="211" height="68" viewBox="0 0 211 68" fill="none" xmlns="http://www.w3.org/2000/svg">
<path d="M20.0745 34.6485L8.84014 46.1362V62.2561H0V0H8.84014V34.8338L42.359 0H52.9883L26.883 26.6698L54.5762 62.2561H44.6165L20.0745 34.6485Z" fill="#FF6060"/>
<path d="M118.789 57.2534L122.289 50.5831C126.34 53.3624 132.602 55.4005 138.68 55.4005C146.32 55.4005 150.73 53.3624 150.73 49.1211C150.73 38.1315 120.078 51.5927 120.078 29.3702C120.078 20.1342 131.313 13.0963 143.823 13.0963C151.281 13.0963 158.74 15.1344 163.515 18.8256L160.015 25.4961C156.153 22.5366 150.363 20.3133 143.823 20.3133C136.364 20.3133 131.589 22.9024 131.589 26.96C131.589 37.5845 162.241 24.4887 162.425 46.3461C162.425 55.5821 151.373 62.6199 138.68 62.6199C130.856 62.4347 123.03 60.2113 118.789 57.2534Z" fill="#FF6060"/>
<path d="M210.322 33.7221V62.2561H198.812V55.9497C195.49 60.0056 189.966 62.8039 182.507 62.8039C170.72 62.8039 162.896 55.9497 162.896 46.5311C162.896 36.9273 170.537 30.6209 188.604 30.6209H198.813V32.8443C198.813 39.1507 194.586 43.3919 186.012 43.3919C180.672 43.3919 175.515 41.3538 171.836 38.0079L168.152 44.3144C172.027 48.3703 179.122 51.3571 186.747 51.3571C199.624 51.3571 210.322 44.8718 210.322 33.7221ZM198.812 47.1201V37.5845H188.787C178.945 37.5845 174.353 40.5714 174.353 46.3461C174.353 51.5419 178.76 54.7126 186.195 54.7126C192.641 54.7126 196.868 52.1235 198.812 47.1201Z" fill="#FF6060"/>
<path d="M91.5323 49.8421V62.2561H82.6921V48.3703C82.6921 39.7009 78.465 35.8245 71.1897 35.8245C63.5484 35.8245 58.574 40.7568 58.574 49.8421V62.2561H49.7338V28.4029H58.574V34.8338C61.164 30.4357 66.5035 28.0325 73.2295 28.0325C84.8248 28.216 91.5323 35.0703 91.5323 49.8421Z" fill="#FF6060"/>
</svg>
